<svg xmlns="http://www.w3.org/2000/svg" xmlns:xlink="http://www.w3.org/1999/xlink" xmlns:sketch="http://www.bohemiancoding.com/sketch/ns" width="275px" height="89px" viewBox="0 0 275 89" version="1.1">
    <!-- Generator: Sketch 3.3.2 (12043) - http://www.bohemiancoding.com/sketch -->
    <title>Imported Layers 3 + Line Copy + Line</title>
    <desc>Created with Sketch.</desc>
    <defs/>
    <g id="Page-1" stroke="none" stroke-width="1" fill="none" fill-rule="evenodd" sketch:type="MSPage">
        <g id="Princess-Victoria-Homepage--Full-Filters" sketch:type="MSArtboardGroup" transform="translate(-126.000000, -71.000000)">
            <g id="Imported-Layers-3-+-Line-Copy-+-Line" sketch:type="MSLayerGroup" transform="translate(126.000000, 71.000000)">
                <g id="Imported-Layers-3" fill="#C7AD73" sketch:type="MSShapeGroup">
                    <path d="M57.773329 0.9 C61.4374036 0.9 64.4 3.9 64.4 7.6 C64.4122108 11.3 61.4 14.3 57.8 14.3 L53.7904242 14.3 L53.7904242 19.7 L51.1351542 19.7 L51.1351542 0.9 L57.773329 0.9 L57.773329 0.9 Z M57.773329 11.6 C59.9775707 11.6 61.8 9.8 61.8 7.6 C61.7562339 5.4 60 3.6 57.8 3.6 L53.7904242 3.6 L53.7904242 11.6 L57.773329 11.6 L57.773329 11.6 Z" id="Fill-1"/>
                    <path d="M88.4955656 19.7 L85.3086761 19.7 L81.830527 14.3 L77.6885604 14.3 L77.6885604 19.7 L75.0325835 19.7 L75.0325835 0.9 L81.6714653 0.9 C85.3355398 0.9 88.3 3.9 88.3 7.6 C88.3096401 10.3 86.8 12.5 84.6 13.6 L88.4955656 19.7 L88.4955656 19.7 Z M77.6885604 11.6 L81.6714653 11.6 C83.875 11.6 85.7 9.8 85.7 7.6 C85.6543702 5.4 83.9 3.6 81.7 3.6 L77.6885604 3.6 L77.6885604 11.6 L77.6885604 11.6 Z" id="Fill-2"/>
                    <path d="M100.604049 0.9 L103.259319 0.9 L103.259319 19.7 L100.604049 19.7 L100.604049 0.9 Z" id="Fill-3"/>
                    <path d="M132.202185 0.9 L132.202185 19.7 L132.043123 19.7 L118.925129 7 L118.925129 19.7 L116.269859 19.7 L116.269859 0.9 L116.402763 0.9 L129.546915 13.6 L129.546915 0.9 L132.202185 0.9" id="Fill-4"/>
                    <path d="M157.427956 14.3 L159.524743 15.9 C157.825964 18.2 155.1 19.7 152.1 19.7 C146.992095 19.7 142.8 15.5 142.8 10.3 C142.822558 5.1 147 0.9 152.1 0.9 C155.14383 0.9 157.8 2.4 159.5 4.7 L157.427956 6.3 C156.206362 4.7 154.3 3.6 152.1 3.6 C148.451928 3.6 145.5 6.6 145.5 10.3 C145.478535 14 148.5 17 152.1 17 C154.294087 17 156.2 15.9 157.4 14.3" id="Fill-5"/>
                    <path d="M172.801799 3.6 L172.801799 11 L180.767609 11 L180.767609 13.6 L172.801799 13.6 L172.801799 17 L183.423586 17 L183.423586 19.7 L170.14653 19.7 L170.14653 0.9 L183.423586 0.9 L183.423586 3.6 L172.801799 3.6" id="Fill-6"/>
                    <path d="M197.495951 6.3 C197.495951 7.8 198.7 9 200.2 9 C203.073008 9 205.5 11.4 205.5 14.3 C205.462468 17.3 203.1 19.7 200.2 19.7 C197.840938 19.7 195.9 18.2 195.1 16.1 L197.65572 15.2 C198.000707 16.2 199 17 200.2 17 C201.612468 17 202.8 15.8 202.8 14.3 C202.807198 12.8 201.6 11.6 200.2 11.6 C197.204692 11.6 194.8 9.3 194.8 6.3 C194.841388 3.3 197.2 0.9 200.2 0.9 C202.462211 0.9 204.4 2.4 205.2 4.5 L202.648136 5.4 C202.301735 4.4 201.3 3.6 200.2 3.6 C198.691388 3.6 197.5 4.8 197.5 6.3" id="Fill-7"/>
                    <path d="M218.207198 6.3 C218.207198 7.8 219.4 9 220.9 9 C223.784254 9 226.2 11.4 226.2 14.3 C226.174422 17.3 223.8 19.7 220.9 19.7 C218.552892 19.7 216.6 18.2 215.8 16.1 L218.367674 15.2 C218.712661 16.2 219.7 17 220.9 17 C222.323008 17 223.5 15.8 223.5 14.3 C223.519152 12.8 222.3 11.6 220.9 11.6 C217.915938 11.6 215.6 9.3 215.6 6.3 C215.552635 3.3 217.9 0.9 220.9 0.9 C223.174165 0.9 225.1 2.4 225.9 4.5 L223.358676 5.4 C223.013689 4.4 222 3.6 220.9 3.6 C219.403342 3.6 218.2 4.8 218.2 6.3" id="Fill-8"/>
                    <path d="M32.1601542 40 L16.6534062 68.5 L16.045437 68.5 L0.539395887 40 L5.15430591 40 L16.3699229 60.6 L27.5445373 40 L32.1601542 40" id="Fill-9"/>
                    <path d="M46.2063625 40 L50.2557198 40 L50.2557198 68.5 L46.2063625 68.5 L46.2063625 40 Z" id="Fill-10"/>
                    <path d="M88.717545 60.4 L91.9157455 62.9 C89.3248072 66.3 85.2 68.5 80.6 68.5 C72.8057198 68.5 66.4 62.1 66.4 54.3 C66.4496144 46.4 72.8 40 80.6 40 C85.2351542 40 89.3 42.3 91.9 45.7 L88.717545 48.2 C86.8547558 45.7 83.9 44.1 80.6 44.1 C75.0325835 44.1 70.5 48.7 70.5 54.3 C70.4975578 59.9 75 64.5 80.6 64.5 C83.9400386 64.5 86.9 62.9 88.7 60.4" id="Fill-11"/>
                    <path d="M128.757969 40 L128.757969 44.1 L118.63599 44.1 L118.63599 68.5 L114.587339 68.5 L114.587339 44.1 L104.466067 44.1 L104.466067 40 L128.757969 40" id="Fill-12"/>
                    <path d="M153.859319 68.5 C146.046208 68.5 139.7 62.1 139.7 54.3 C139.688689 46.4 146 40 153.9 40 C161.672429 40 168 46.4 168 54.3 C168.029242 62.1 161.7 68.5 153.9 68.5 L153.859319 68.5 Z M143.737339 54.3 C143.737339 59.9 148.3 64.5 153.9 64.5 C159.446272 64.5 164 59.9 164 54.3 C163.981298 48.7 159.4 44.1 153.9 44.1 C148.270951 44.1 143.7 48.7 143.7 54.3 L143.737339 54.3 Z" id="Fill-13"/>
                    <path d="M204.344087 68.5 L199.486697 68.5 L194.182519 60.4 L193.939332 60.4 L187.866003 60.4 L187.866003 68.5 L183.818059 68.5 L183.818059 40 L193.939332 40 C199.526992 40 204.1 44.6 204.1 50.2 C204.060604 54.2 201.8 57.7 198.4 59.4 L204.344087 68.5 L204.344087 68.5 Z M187.866003 56.3 L193.939332 56.3 C197.300129 56.3 200 53.6 200 50.2 C200.013368 46.8 197.3 44.1 193.9 44.1 L187.866003 44.1 L187.866003 56.3 L187.866003 56.3 Z" id="Fill-14"/>
                    <path d="M222.805141 40 L226.854499 40 L226.854499 68.5 L222.805141 68.5 L222.805141 40 Z" id="Fill-15"/>
                    <path d="M267.138111 63.5 L250.295951 63.5 L247.54171 68.5 L242.927506 68.5 L258.716324 39.5 L274.546851 68.5 L269.931234 68.5 L267.138111 63.5 L267.138111 63.5 Z M264.951542 59.4 L258.716324 47.9 L252.521401 59.4 L264.951542 59.4 L264.951542 59.4 Z" id="Fill-16"/>
                </g>
                <path d="M0.781929764 88.5 L274.433891 88.5" id="Line-Copy" stroke="#C7AD73" sketch:type="MSShapeGroup"/>
                <path d="M0.781929764 83.5 L274.433891 83.5" id="Line" stroke="#C7AD73" stroke-width="3" sketch:type="MSShapeGroup"/>
            </g>
        </g>
    </g>
</svg>
